<?xml version="1.0" encoding="UTF-8" standalone="no"?>
<!-- Created with Inkscape (http://www.inkscape.org/) -->

<svg
   width="22"
   height="22"
   id="svg4428"
   version="1.1"
   inkscape:version="1.4.2 (ebf0e940d0, 2025-05-08)"
   sodipodi:docname="keepabove.svg"
   viewBox="0 0 22 22"
   xmlns:inkscape="http://www.inkscape.org/namespaces/inkscape"
   xmlns:sodipodi="http://sodipodi.sourceforge.net/DTD/sodipodi-0.dtd"
   xmlns:xlink="http://www.w3.org/1999/xlink"
   xmlns="http://www.w3.org/2000/svg"
   xmlns:svg="http://www.w3.org/2000/svg"
   xmlns:rdf="http://www.w3.org/1999/02/22-rdf-syntax-ns#"
   xmlns:cc="http://creativecommons.org/ns#"
   xmlns:dc="http://purl.org/dc/elements/1.1/">
  <defs
     id="defs4430">
    <linearGradient
       id="linearGradient3913">
      <stop
         style="stop-color:#ffffff;stop-opacity:1;"
         offset="0"
         id="stop3915" />
      <stop
         id="stop3921"
         offset="0.5"
         style="stop-color:#ffffff;stop-opacity:0.49803922;" />
      <stop
         style="stop-color:#ffffff;stop-opacity:0;"
         offset="1"
         id="stop3917" />
    </linearGradient>
    <linearGradient
       id="linearGradient3868">
      <stop
         style="stop-color:#5a5a5a;stop-opacity:1;"
         offset="0"
         id="stop3870" />
      <stop
         style="stop-color:#646464;stop-opacity:1;"
         offset="1"
         id="stop3872" />
    </linearGradient>
    <linearGradient
       id="linearGradient3813">
      <stop
         style="stop-color:#666666;stop-opacity:1;"
         offset="0"
         id="stop3815" />
      <stop
         style="stop-color:#636363;stop-opacity:1;"
         offset="1"
         id="stop3817" />
    </linearGradient>
    <linearGradient
       id="linearGradient3787">
      <stop
         style="stop-color:#e5e5df;stop-opacity:1;"
         offset="0"
         id="stop3789" />
      <stop
         style="stop-color:#dadad4;stop-opacity:1;"
         offset="1"
         id="stop3791" />
    </linearGradient>
    <linearGradient
       id="linearGradient3806-3-5-6">
      <stop
         style="stop-color:#303030;stop-opacity:1;"
         offset="0"
         id="stop3808-6-9-1" />
      <stop
         style="stop-color:#232323;stop-opacity:1;"
         offset="1"
         id="stop3810-4-6-3" />
    </linearGradient>
    <linearGradient
       inkscape:collect="always"
       xlink:href="#linearGradient3787"
       id="linearGradient3793"
       x1="40"
       y1="1044.3622"
       x2="40"
       y2="1032.3622"
       gradientUnits="userSpaceOnUse" />
    <linearGradient
       inkscape:collect="always"
       xlink:href="#linearGradient3787"
       id="linearGradient3828"
       gradientUnits="userSpaceOnUse"
       x1="40"
       y1="1044.3622"
       x2="40"
       y2="1032.3622"
       gradientTransform="matrix(1.1666666,0,0,1.0769231,-6.5,-80.335554)" />
    <linearGradient
       inkscape:collect="always"
       xlink:href="#linearGradient3787-8"
       id="linearGradient3835"
       gradientUnits="userSpaceOnUse"
       gradientTransform="matrix(1.1666666,0,0,1.0769231,-35.5,-1105.6978)"
       x1="40"
       y1="1044.3622"
       x2="40"
       y2="1032.3622" />
    <linearGradient
       inkscape:collect="always"
       xlink:href="#linearGradient3787-8"
       id="linearGradient3835-4"
       gradientUnits="userSpaceOnUse"
       gradientTransform="matrix(1.1666666,0,0,1.0769231,-35.5,-1105.6978)"
       x1="40"
       y1="1044.3622"
       x2="40"
       y2="1032.3622" />
    <linearGradient
       id="linearGradient3787-8">
      <stop
         style="stop-color:#f5f5ee;stop-opacity:1;"
         offset="0"
         id="stop3789-2" />
      <stop
         style="stop-color:#e6e6df;stop-opacity:1;"
         offset="1"
         id="stop3791-6" />
    </linearGradient>
    <linearGradient
       inkscape:collect="always"
       xlink:href="#linearGradient3787-8"
       id="linearGradient3835-3"
       gradientUnits="userSpaceOnUse"
       gradientTransform="matrix(1.1666666,0,0,1.0769231,-35.5,-1105.6978)"
       x1="40"
       y1="1044.3622"
       x2="40"
       y2="1032.3622" />
    <linearGradient
       id="linearGradient3787-7">
      <stop
         style="stop-color:#f5f5ee;stop-opacity:1;"
         offset="0"
         id="stop3789-3" />
      <stop
         style="stop-color:#e6e6e0;stop-opacity:1;"
         offset="1"
         id="stop3791-3" />
    </linearGradient>
    <linearGradient
       inkscape:collect="always"
       xlink:href="#linearGradient3787"
       id="linearGradient3807"
       x1="11"
       y1="15.75"
       x2="11"
       y2="8.25"
       gradientUnits="userSpaceOnUse" />
    <linearGradient
       inkscape:collect="always"
       xlink:href="#linearGradient3813"
       id="linearGradient3819"
       x1="29.5"
       y1="15.2"
       x2="29.5"
       y2="8.8000002"
       gradientUnits="userSpaceOnUse" />
    <linearGradient
       inkscape:collect="always"
       xlink:href="#linearGradient4231"
       id="linearGradient3807-1"
       x1="10"
       y1="7.0000038"
       x2="10"
       y2="15.888954"
       gradientUnits="userSpaceOnUse" />
    <linearGradient
       id="linearGradient4231">
      <stop
         id="stop4233"
         offset="0"
         style="stop-color:#e7e7e1;stop-opacity:1;" />
      <stop
         id="stop4239"
         offset="1"
         style="stop-color:#dadad3;stop-opacity:1;" />
    </linearGradient>
    <linearGradient
       inkscape:collect="always"
       xlink:href="#linearGradient4231-1"
       id="linearGradient3807-1-1"
       x1="10"
       y1="15.888976"
       x2="10"
       y2="7.0000262"
       gradientUnits="userSpaceOnUse" />
    <linearGradient
       id="linearGradient4231-1">
      <stop
         id="stop4233-6"
         offset="0"
         style="stop-color:#e5e5de;stop-opacity:1;" />
      <stop
         id="stop4239-7"
         offset="1"
         style="stop-color:#dadad3;stop-opacity:1;" />
    </linearGradient>
    <linearGradient
       id="linearGradient4363">
      <stop
         style="stop-color:#979791;stop-opacity:1;"
         offset="0"
         id="stop4365" />
      <stop
         style="stop-color:#dadad4;stop-opacity:0;"
         offset="1"
         id="stop4367" />
    </linearGradient>
    <linearGradient
       id="linearGradient4363-7">
      <stop
         style="stop-color:#f5f5ef;stop-opacity:1;"
         offset="0"
         id="stop4365-9" />
      <stop
         style="stop-color:#dadad4;stop-opacity:0;"
         offset="1"
         id="stop4367-8" />
    </linearGradient>
    <linearGradient
       inkscape:collect="always"
       xlink:href="#linearGradient4231-7"
       id="linearGradient4361"
       gradientUnits="userSpaceOnUse"
       gradientTransform="matrix(1.1875,0,0,1,-41.25,0)"
       x1="248.63158"
       y1="79"
       x2="248.63158"
       y2="58" />
    <linearGradient
       id="linearGradient4231-7">
      <stop
         id="stop4233-4"
         offset="0"
         style="stop-color:#e6e6df;stop-opacity:1;" />
      <stop
         id="stop4239-8"
         offset="1"
         style="stop-color:#d1d1ca;stop-opacity:1;" />
    </linearGradient>
    <linearGradient
       inkscape:collect="always"
       xlink:href="#linearGradient4231-7"
       id="linearGradient3127"
       gradientUnits="userSpaceOnUse"
       gradientTransform="matrix(1.1875,0,0,1,-262.25,-55.99998)"
       x1="248.63158"
       y1="79"
       x2="248.63158"
       y2="58" />
    <linearGradient
       inkscape:collect="always"
       xlink:href="#linearGradient4231-7"
       id="linearGradient3154"
       gradientUnits="userSpaceOnUse"
       gradientTransform="matrix(1.1875,0,0,1,-262.25,-55.99998)"
       x1="248.63158"
       y1="79"
       x2="248.63158"
       y2="58" />
    <linearGradient
       inkscape:collect="always"
       xlink:href="#linearGradient4231-7"
       id="linearGradient3159"
       gradientUnits="userSpaceOnUse"
       gradientTransform="matrix(1.1875,0,0,1,-249.25,-54.99998)"
       x1="248.63158"
       y1="79"
       x2="248.63158"
       y2="58" />
    <linearGradient
       inkscape:collect="always"
       xlink:href="#linearGradient4231-7-9"
       id="linearGradient3159-0"
       gradientUnits="userSpaceOnUse"
       gradientTransform="matrix(1.1875,0,0,1,-262.25,-55.99998)"
       x1="248.63158"
       y1="79"
       x2="248.63158"
       y2="58" />
    <linearGradient
       id="linearGradient4231-7-9">
      <stop
         id="stop4233-4-2"
         offset="0"
         style="stop-color:#e6e6df;stop-opacity:1;" />
      <stop
         id="stop4239-8-9"
         offset="1"
         style="stop-color:#d1d1ca;stop-opacity:1;" />
    </linearGradient>
    <linearGradient
       id="linearGradient4231-5">
      <stop
         id="stop4233-41"
         offset="0"
         style="stop-color:#e5e5de;stop-opacity:1;" />
      <stop
         id="stop4239-73"
         offset="1"
         style="stop-color:#dadad3;stop-opacity:1;" />
    </linearGradient>
    <linearGradient
       inkscape:collect="always"
       xlink:href="#linearGradient4231-7-7"
       id="linearGradient3159-1"
       gradientUnits="userSpaceOnUse"
       gradientTransform="matrix(1.1875,0,0,1,-262.25,-55.99998)"
       x1="248.63158"
       y1="79"
       x2="248.63158"
       y2="58" />
    <linearGradient
       id="linearGradient4231-7-7">
      <stop
         id="stop4233-4-7"
         offset="0"
         style="stop-color:#e6e6df;stop-opacity:1;" />
      <stop
         id="stop4239-8-2"
         offset="1"
         style="stop-color:#d1d1ca;stop-opacity:1;" />
    </linearGradient>
    <linearGradient
       inkscape:collect="always"
       xlink:href="#linearGradient4231-73"
       id="linearGradient3807-1-7"
       x1="10"
       y1="15.888976"
       x2="10"
       y2="7.0000262"
       gradientUnits="userSpaceOnUse" />
    <linearGradient
       id="linearGradient4231-73">
      <stop
         id="stop4233-1"
         offset="0"
         style="stop-color:#e5e5de;stop-opacity:1;" />
      <stop
         id="stop4239-85"
         offset="1"
         style="stop-color:#dadad3;stop-opacity:1;" />
    </linearGradient>
  </defs>
  <sodipodi:namedview
     id="base"
     pagecolor="#eff0f1"
     bordercolor="#666666"
     borderopacity="1.0"
     inkscape:pageopacity="1"
     inkscape:pageshadow="2"
     inkscape:zoom="9.4655885"
     inkscape:cx="-32.22198"
     inkscape:cy="34.22925"
     inkscape:document-units="px"
     inkscape:current-layer="svg4428"
     showgrid="false"
     inkscape:snap-bbox="true"
     inkscape:window-width="1920"
     inkscape:window-height="1044"
     inkscape:window-x="0"
     inkscape:window-y="0"
     inkscape:window-maximized="1"
     showborder="false"
     inkscape:showpageshadow="false"
     showguides="true"
     inkscape:guide-bbox="true"
     inkscape:pagecheckerboard="0"
     inkscape:deskcolor="#eff0f1">
    <inkscape:grid
       type="xygrid"
       id="grid4436"
       empspacing="5"
       visible="true"
       enabled="true"
       snapvisiblegridlinesonly="true"
       originx="0"
       originy="0"
       spacingx="1.0666667"
       spacingy="1.0666667"
       units="px" />
    <sodipodi:guide
       position="13.402138,19.450607"
       orientation="1,0"
       id="guide941"
       inkscape:locked="false" />
  </sodipodi:namedview>
  <metadata
     id="metadata4433">
    <rdf:RDF>
      <cc:Work
         rdf:about="">
        <dc:format>image/svg+xml</dc:format>
        <dc:type
           rdf:resource="http://purl.org/dc/dcmitype/StillImage" />
      </cc:Work>
    </rdf:RDF>
  </metadata>
  <g
     id="deactivated-inactive-center"
     transform="matrix(0.02412622,0,0,-0.02412632,-21.589389,65.900973)">
    <path
       id="path9"
       style="fill:#232831;fill-opacity:1;fill-rule:evenodd;stroke:none;stroke-width:0.824346"
       d="m 438.92025,-4.1046029 c 251.80203,0 455.93153,204.1290629 455.93153,455.9332429 0,251.8053 -204.1295,455.93406 -455.93153,455.93406 -251.80945,0 -455.93951,-204.12876 -455.93951,-455.93406 0,-251.80418 204.13006,-455.9332429 455.93951,-455.9332429"
       inkscape:connector-curvature="0"
       inkscape:export-xdpi="96"
       inkscape:export-ydpi="96" />
    <path
       id="path10"
       style="fill:#5b5c63;fill-opacity:1;fill-rule:evenodd;stroke:none;stroke-width:0.721303"
       d="m 434.50942,79.073264 c 204.58856,0 370.44376,165.858166 370.44376,370.449736 0,204.5925 -165.8552,370.44717 -370.44376,370.44717 -204.59609,0 -370.45145,-165.85467 -370.45145,-370.44717 0,-204.59157 165.85536,-370.449736 370.45145,-370.449736"
       inkscape:connector-curvature="0"
       inkscape:export-xdpi="96"
       inkscape:export-ydpi="96" />
  </g>
  <g
     id="deactivated-center"
     transform="matrix(0.02412622,0,0,-0.02412632,-43.58939,65.900973)">
    <path
       id="path7"
       style="fill:#232831;fill-opacity:1;fill-rule:evenodd;stroke:none;stroke-width:0.824346"
       d="m 438.92025,-4.1046029 c 251.80203,0 455.93153,204.1290629 455.93153,455.9332429 0,251.8053 -204.1295,455.93406 -455.93153,455.93406 -251.80945,0 -455.93951,-204.12876 -455.93951,-455.93406 0,-251.80418 204.13006,-455.9332429 455.93951,-455.9332429"
       inkscape:connector-curvature="0"
       inkscape:export-xdpi="96"
       inkscape:export-ydpi="96" />
    <path
       id="path8"
       style="fill:#5b5c63;fill-opacity:1;fill-rule:evenodd;stroke:none;stroke-width:0.721303"
       d="m 434.50942,79.073264 c 204.58856,0 370.44376,165.858166 370.44376,370.449736 0,204.5925 -165.8552,370.44717 -370.44376,370.44717 -204.59609,0 -370.45145,-165.85467 -370.45145,-370.44717 0,-204.59157 165.85536,-370.449736 370.45145,-370.449736"
       inkscape:connector-curvature="0"
       inkscape:export-xdpi="96"
       inkscape:export-ydpi="96" />
  </g>
  <g
     id="pressed-inactive-center"
     transform="matrix(0.02412676,0,0,-0.02412688,-0.69403522,44.138694)">
    <path
       inkscape:connector-curvature="0"
       d="m 484.6932,5.7440509 c 251.8017,0 455.9233,204.1235491 455.9233,455.9271191 0,251.79395 -204.1216,455.91889 -455.9233,455.91889 -251.8007,0 -455.927103,-204.12494 -455.927103,-455.91889 C 28.766097,209.8676 232.8925,5.7440509 484.6932,5.7440509"
       style="fill:#232831;fill-opacity:1;fill-rule:evenodd;stroke:none;stroke-width:1.06667;enable-background:new"
       id="path4" />
    <path
       inkscape:connector-curvature="0"
       d="m 485.0303,84.485021 c 204.5874,0 370.4407,165.851489 370.4407,370.442739 0,204.58367 -165.8533,370.435 -370.4407,370.435 -204.5865,0 -370.4407,-165.85133 -370.4407,-370.435 0,-204.59125 165.8542,-370.442739 370.4407,-370.442739"
       style="fill:#5b5c63;fill-opacity:1;fill-rule:evenodd;stroke:none;stroke-width:0.947232;enable-background:new"
       id="path5" />
    <path
       inkscape:connector-curvature="0"
       d="m 485.0303,84.48502 c 204.5874,0 370.4407,165.85149 370.4407,370.44274 0,204.58367 -165.8533,370.435 -370.4407,370.435 -204.5865,0 -370.4407,-165.85133 -370.4407,-370.435 0,-204.59125 165.8542,-370.44274 370.4407,-370.44274"
       style="fill:#c74ded;fill-opacity:1;fill-rule:evenodd;stroke:none;stroke-width:0.947232;enable-background:new;opacity:0.45"
       id="path16-6-7-5" />
    <path
       inkscape:connector-curvature="0"
       d="m 250.0059,388.11191 202.329,202.32806 c 26.8384,26.83828 70.7493,26.83818 97.5871,6e-4 l 202.3308,-202.32988 -502.2469,0.001"
       style="fill:#232831;fill-opacity:1;fill-rule:evenodd;stroke:none;stroke-width:1.06667;enable-background:new"
       id="path6"
       sodipodi:nodetypes="csscc" />
  </g>
  <g
     id="pressed-center"
     transform="matrix(0.02412676,0,0,-0.02412688,-0.69403285,22.138586)">
    <path
       inkscape:connector-curvature="0"
       d="m 484.6932,5.7440509 c 251.8017,0 455.9233,204.1235491 455.9233,455.9271191 0,251.79395 -204.1216,455.91889 -455.9233,455.91889 -251.8007,0 -455.927103,-204.12494 -455.927103,-455.91889 C 28.766097,209.8676 232.8925,5.7440509 484.6932,5.7440509"
       style="fill:#232831;fill-opacity:1;fill-rule:evenodd;stroke:none;stroke-width:1.06667;enable-background:new"
       id="path14-5-2" />
    <path
       inkscape:connector-curvature="0"
       d="m 485.0303,84.485021 c 204.5874,0 370.4407,165.851489 370.4407,370.442739 0,204.58367 -165.8533,370.435 -370.4407,370.435 -204.5865,0 -370.4407,-165.85133 -370.4407,-370.435 0,-204.59125 165.8542,-370.442739 370.4407,-370.442739"
       style="fill:#c74ded;fill-opacity:1;fill-rule:evenodd;stroke:none;stroke-width:0.947232;enable-background:new"
       id="path16-6-7" />
    <path
       inkscape:connector-curvature="0"
       d="m 250.0059,388.11191 202.329,202.32806 c 26.8384,26.83828 70.7493,26.83818 97.5871,6e-4 l 202.3308,-202.32988 -502.2469,0.001"
       style="fill:#232831;fill-opacity:1;fill-rule:evenodd;stroke:none;stroke-width:1.06667;enable-background:new"
       id="path18-6-0"
       sodipodi:nodetypes="csscc" />
  </g>
  <g
     id="hover-inactive-center"
     transform="matrix(0.02412676,0,0,-0.02412677,-21.746606,44.002342)">
    <path
       inkscape:connector-curvature="0"
       d="m 445.42453,0.09264371 c 251.80173,0 455.92333,204.12446629 455.92333,455.92916629 0,251.7951 -204.1216,455.92091 -455.92333,455.92091 -251.80069,0 -455.927116,-204.12581 -455.927116,-455.92091 0,-251.8047 204.126426,-455.92916629 455.927116,-455.92916629"
       style="fill:#232831;fill-opacity:1;fill-rule:evenodd;stroke:none;stroke-width:1.06667;enable-background:new"
       id="path14-5" />
    <path
       inkscape:connector-curvature="0"
       d="m 445.76163,78.833964 c 204.58743,0 370.44073,165.852236 370.44073,370.444416 0,204.5846 -165.8533,370.43664 -370.44073,370.43664 -204.58645,0 -370.440716,-165.85204 -370.440716,-370.43664 0,-204.59218 165.854266,-370.444416 370.440716,-370.444416"
       style="fill:#5b5c63;fill-opacity:1;fill-rule:evenodd;stroke:none;stroke-width:0.947234;enable-background:new"
       id="path16-6" />
    <path
       inkscape:connector-curvature="0"
       d="m 445.76163,78.83397 c 204.58743,0 370.44072,165.85223 370.44072,370.44441 0,204.5846 -165.85329,370.43664 -370.44072,370.43664 -204.58645,0 -370.44072,-165.85204 -370.44072,-370.43664 0,-204.59218 165.85427,-370.44441 370.44072,-370.44441"
       style="fill:#c74ded;fill-opacity:1;fill-rule:evenodd;stroke:none;stroke-width:0.947234;enable-background:new;opacity:0.45"
       id="path2-6" />
    <path
       inkscape:connector-curvature="0"
       d="m 210.73721,382.46225 202.32908,202.32896 c 26.83838,26.8384 70.74931,26.8383 97.58706,6e-4 l 202.33081,-202.33078 -502.24695,0.001"
       style="fill:#ffffff;fill-opacity:1;fill-rule:evenodd;stroke:none;stroke-width:1.06667;enable-background:new"
       id="path18-6"
       sodipodi:nodetypes="csscc" />
  </g>
  <g
     id="hover-center"
     transform="matrix(0.02412676,0,0,-0.02412677,-21.746606,22.002235)">
    <path
       inkscape:connector-curvature="0"
       d="m 445.42453,0.09264371 c 251.80173,0 455.92333,204.12446629 455.92333,455.92916629 0,251.7951 -204.1216,455.92091 -455.92333,455.92091 -251.80069,0 -455.927116,-204.12581 -455.927116,-455.92091 0,-251.8047 204.126426,-455.92916629 455.927116,-455.92916629"
       style="fill:#232831;fill-opacity:1;fill-rule:evenodd;stroke:none;stroke-width:1.06667;enable-background:new"
       id="path1" />
    <path
       inkscape:connector-curvature="0"
       d="m 445.76163,78.833964 c 204.58743,0 370.44073,165.852236 370.44073,370.444416 0,204.5846 -165.8533,370.43664 -370.44073,370.43664 -204.58645,0 -370.440716,-165.85204 -370.440716,-370.43664 0,-204.59218 165.854266,-370.444416 370.440716,-370.444416"
       style="fill:#c74ded;fill-opacity:1;fill-rule:evenodd;stroke:none;stroke-width:0.947234;enable-background:new"
       id="path2" />
    <path
       inkscape:connector-curvature="0"
       d="m 210.73721,382.46225 202.32908,202.32896 c 26.83838,26.8384 70.74931,26.8383 97.58706,6e-4 l 202.33081,-202.33078 -502.24695,0.001"
       style="fill:#ffffff;fill-opacity:1;fill-rule:evenodd;stroke:none;stroke-width:1.06667;enable-background:new"
       id="path3"
       sodipodi:nodetypes="csscc" />
  </g>
  <g
     id="inactive-center"
     transform="matrix(0.02412622,0,0,-0.02412632,-43.58939,43.900971)">
    <path
       id="path4094"
       style="fill:#232831;fill-opacity:1;fill-rule:evenodd;stroke:none;stroke-width:0.824346"
       d="m 438.92025,-4.1046029 c 251.80203,0 455.93153,204.1290629 455.93153,455.9332429 0,251.8053 -204.1295,455.93406 -455.93153,455.93406 -251.80945,0 -455.93951,-204.12876 -455.93951,-455.93406 0,-251.80418 204.13006,-455.9332429 455.93951,-455.9332429"
       inkscape:connector-curvature="0"
       inkscape:export-xdpi="96"
       inkscape:export-ydpi="96" />
    <path
       id="path4096"
       style="fill:#5b5c63;fill-opacity:1;fill-rule:evenodd;stroke:none;stroke-width:0.721303"
       d="m 434.50942,79.073264 c 204.58856,0 370.44376,165.858166 370.44376,370.449736 0,204.5925 -165.8552,370.44717 -370.44376,370.44717 -204.59609,0 -370.45145,-165.85467 -370.45145,-370.44717 0,-204.59157 165.85536,-370.449736 370.45145,-370.449736"
       inkscape:connector-curvature="0"
       inkscape:export-xdpi="96"
       inkscape:export-ydpi="96" />
  </g>
  <g
     id="active-center"
     transform="matrix(0.02412688,0,0,-0.02412676,-44.071273,22.189596)">
    <path
       inkscape:connector-curvature="0"
       d="m 458.87896,7.858312 c 251.8005,0 455.9211,204.124598 455.9211,455.929418 0,251.79519 -204.1206,455.92109 -455.9211,455.92109 C 207.07951,919.70882 2.9541065,715.58292 2.9541065,463.78773 2.9541065,211.98291 207.07951,7.858312 458.87896,7.858312"
       style="fill:#232831;fill-opacity:1;fill-rule:evenodd;stroke:none;stroke-width:1.06667;enable-background:new"
       id="path14" />
    <path
       inkscape:connector-curvature="0"
       d="m 459.21604,86.599672 c 204.58639,0 370.43888,165.852338 370.43888,370.444598 0,204.5847 -165.85249,370.4368 -370.43888,370.4368 -204.58542,0 -370.438838,-165.8521 -370.438838,-370.4368 0,-204.59226 165.853418,-370.444598 370.438838,-370.444598"
       style="fill:#c74ded;fill-opacity:1;fill-rule:evenodd;stroke:none;stroke-width:0.947232;enable-background:new"
       id="path16" />
  </g>
</svg>
