<?xml version="1.0" encoding="UTF-8" standalone="no"?>
<svg
   inkscape:version="1.4.2 (ebf0e940d0, 2025-05-08)"
   sodipodi:docname="help.svg"
   style="enable-background:new"
   version="1.1"
   height="22"
   width="22"
   id="svg4306"
   xmlns:inkscape="http://www.inkscape.org/namespaces/inkscape"
   xmlns:sodipodi="http://sodipodi.sourceforge.net/DTD/sodipodi-0.dtd"
   xmlns="http://www.w3.org/2000/svg"
   xmlns:svg="http://www.w3.org/2000/svg"
   xmlns:rdf="http://www.w3.org/1999/02/22-rdf-syntax-ns#"
   xmlns:cc="http://creativecommons.org/ns#"
   xmlns:dc="http://purl.org/dc/elements/1.1/">
  <metadata
     id="metadata28">
    <rdf:RDF>
      <cc:Work
         rdf:about="">
        <dc:format>image/svg+xml</dc:format>
        <dc:type
           rdf:resource="http://purl.org/dc/dcmitype/StillImage" />
      </cc:Work>
    </rdf:RDF>
  </metadata>
  <defs
     id="defs26" />
  <sodipodi:namedview
     inkscape:bbox-nodes="true"
     inkscape:snap-bbox="true"
     inkscape:current-layer="svg4306"
     inkscape:window-maximized="1"
     inkscape:window-y="0"
     inkscape:window-x="0"
     inkscape:cy="42.75251"
     inkscape:cx="-17.935556"
     inkscape:zoom="13.660017"
     showgrid="true"
     id="namedview24"
     inkscape:window-height="1044"
     inkscape:window-width="1920"
     inkscape:pageshadow="2"
     inkscape:pageopacity="0"
     guidetolerance="10"
     gridtolerance="10"
     objecttolerance="10"
     borderopacity="1"
     bordercolor="#ffffff"
     pagecolor="#ffffff"
     inkscape:document-rotation="0"
     inkscape:lockguides="false"
     inkscape:pagecheckerboard="true"
     inkscape:showpageshadow="false"
     inkscape:deskcolor="#ffffff">
    <inkscape:grid
       type="xygrid"
       id="grid939"
       originx="0"
       originy="0"
       spacingy="1"
       spacingx="1"
       units="px"
       visible="true" />
  </sodipodi:namedview>
  <style
     id="current-color-scheme"
     type="text/css" />
  <g
     id="deactivated-inactive-center"
     transform="translate(-22.209997,44.000003)"
     style="enable-background:new">
    <rect
       y="0"
       x="0"
       height="22"
       width="22"
       id="rect3"
       style="opacity:0.00100002;fill:#000000;fill-opacity:1;stroke-width:1.02253" />
    <path
       d="m 21.999768,10.999889 c 0,1.318677 -0.232108,2.582972 -0.657775,3.754858 -0.295879,0.814431 -0.685126,1.584459 -1.155686,2.296654 -0.19709,0.299443 -0.409006,0.58863 -0.63396,0.866538 -0.720153,0.88942 -1.576005,1.663867 -2.536682,2.292495 -0.353807,0.231675 -0.721528,0.443602 -1.102236,0.633493 C 14.434985,21.583811 12.766127,22 10.999844,22 9.233564,22 7.564702,21.583811 6.086263,20.843899 5.705523,20.653967 5.337353,20.442054 4.983559,20.210406 4.010613,19.573297 3.144519,18.786571 2.418603,17.882434 2.19323,17.602267 1.9817373,17.310432 1.784638,17.008287 1.3266612,16.307898 0.9473003,15.552159 0.6572778,14.753486 0.2316789,13.582072 -2.4e-5,12.318247 -2.4e-5,11.000013 -2.4e-5,4.9248039 4.924786,0 11,0 c 3.049591,0 5.808988,1.2409711 7.801585,3.2451381 0.574233,0.5773509 1.084743,1.2185482 1.519185,1.9116595 0.410821,0.6528255 0.754265,1.3523118 1.021406,2.0882192 0.425708,1.1718446 0.6578,2.4362091 0.6578,3.7548582 z"
       stroke-width="0.0429697"
       id="path3"
       style="fill:#23262e;fill-opacity:1;enable-background:new" />
    <rect
       style="fill:#5b5c63;fill-opacity:1;stroke:none;stroke-width:0.460489;enable-background:new"
       id="rect4"
       width="18.42"
       height="18.42"
       x="1.7899966"
       y="1.7899964"
       ry="9.2099857"
       rx="9.21" />
  </g>
  <g
     id="deactivated-center"
     transform="translate(-43.999976,44)"
     style="enable-background:new">
    <rect
       y="0"
       x="0"
       height="22"
       width="22"
       id="rect1"
       style="opacity:0.00100002;fill:#000000;fill-opacity:1;stroke-width:1.02253" />
    <path
       d="m 21.999768,10.999889 c 0,1.318677 -0.232108,2.582972 -0.657775,3.754858 -0.295879,0.814431 -0.685126,1.584459 -1.155686,2.296654 -0.19709,0.299443 -0.409006,0.58863 -0.63396,0.866538 -0.720153,0.88942 -1.576005,1.663867 -2.536682,2.292495 -0.353807,0.231675 -0.721528,0.443602 -1.102236,0.633493 C 14.434985,21.583811 12.766127,22 10.999844,22 9.233564,22 7.564702,21.583811 6.086263,20.843899 5.705523,20.653967 5.337353,20.442054 4.983559,20.210406 4.010613,19.573297 3.144519,18.786571 2.418603,17.882434 2.19323,17.602267 1.9817373,17.310432 1.784638,17.008287 1.3266612,16.307898 0.9473003,15.552159 0.6572778,14.753486 0.2316789,13.582072 -2.4e-5,12.318247 -2.4e-5,11.000013 -2.4e-5,4.9248039 4.924786,0 11,0 c 3.049591,0 5.808988,1.2409711 7.801585,3.2451381 0.574233,0.5773509 1.084743,1.2185482 1.519185,1.9116595 0.410821,0.6528255 0.754265,1.3523118 1.021406,2.0882192 0.425708,1.1718446 0.6578,2.4362091 0.6578,3.7548582 z"
       stroke-width="0.0429697"
       id="path1"
       style="fill:#23262e;fill-opacity:1;enable-background:new" />
    <rect
       style="fill:#5b5c63;fill-opacity:1;stroke:none;stroke-width:0.460489;enable-background:new"
       id="rect2"
       width="18.42"
       height="18.42"
       x="1.7899966"
       y="1.7899964"
       ry="9.2099857"
       rx="9.21" />
  </g>
  <g
     id="pressed-inactive-center"
     transform="translate(0,22)">
    <rect
       y="0"
       x="0"
       height="22"
       width="22"
       id="rect861-6-6-5"
       style="opacity:0.00100002;fill:#000000;fill-opacity:1;stroke-width:1.02253" />
    <path
       d="m 21.999793,10.999889 c 0,1.318677 -0.232112,2.582972 -0.657776,3.754858 -0.295875,0.814431 -0.685129,1.584459 -1.155685,2.296654 -0.197095,0.299443 -0.409004,0.58863 -0.633967,0.866538 -0.720148,0.88942 -1.576,1.663867 -2.536677,2.292495 -0.353807,0.231675 -0.721528,0.443602 -1.102236,0.633493 C 14.435008,21.583811 12.766151,22 10.999868,22 9.2335876,22 7.5647256,21.583811 6.0862866,20.843899 5.7055466,20.653967 5.3373766,20.442054 4.9835826,20.210406 4.0106366,19.573297 3.1445426,18.786571 2.4186266,17.882434 2.1932536,17.602267 1.9817616,17.310432 1.7846616,17.008287 1.3266856,16.307898 0.9473242,15.552159 0.6573017,14.753486 0.2317029,13.582072 0,12.318247 0,11.000014 0,4.9248039 4.9248096,0 11.000024,0 c 3.049591,0 5.808987,1.2409711 7.801583,3.2451381 0.574233,0.5773509 1.084743,1.2185482 1.519182,1.9116595 0.410826,0.6528255 0.75427,1.3523118 1.021412,2.0882192 0.425712,1.1718446 0.6578,2.4362091 0.6578,3.7548582 z"
       stroke-width="0.0429697"
       id="path273-2-2"
       style="display:inline;fill:#23262e;fill-opacity:1;enable-background:new" />
    <rect
       style="fill:#5b5c63;fill-opacity:1;stroke:none;stroke-width:0.460489;enable-background:new"
       id="center-3-35-5-7-6"
       width="18.42"
       height="18.42"
       x="1.7899921"
       y="1.789997"
       ry="9.2099857"
       rx="9.21" />
    <path
       d="m 20.209991,10.999997 c 0,1.104117 -0.194358,2.162639 -0.550746,3.143831 -0.247757,0.681914 -0.573653,1.326605 -0.967644,1.922885 -0.165021,0.250717 -0.342464,0.492855 -0.530809,0.725542 -0.602962,0.744707 -1.319523,1.393209 -2.123979,1.919559 -0.296228,0.19398 -0.604123,0.371426 -0.922886,0.530411 -1.237856,0.619496 -2.63522,0.967971 -4.114213,0.967971 -1.4788575,0 -2.8762265,-0.348475 -4.1142175,-0.967984 -0.318789,-0.159027 -0.627052,-0.33646 -0.923278,-0.530412 -0.814639,-0.533433 -1.5398312,-1.19212 -2.1475352,-1.949217 -0.188702,-0.234571 -0.365771,-0.47894 -0.530814,-0.731916 -0.38344,-0.586428 -0.701081,-1.219158 -0.943928,-1.887823 -0.356332,-0.980818 -0.550351,-2.039021 -0.550351,-3.142722 0,-5.0866739 4.1235002,-9.2101718 9.2101787,-9.2101718 2.553312,0 4.863686,1.0390515 6.532271,2.7171235 0.480797,0.483417 0.908254,1.0202597 1.272041,1.6006735 0.343982,0.5465973 0.631546,1.1322777 0.855213,1.7484036 0.356436,0.9811645 0.550758,2.0397153 0.550758,3.1438312 z"
       stroke-width="0.035977"
       id="path275-7-1"
       style="display:inline;fill:#9a658f;fill-opacity:1;enable-background:new;opacity:0.45" />
    <path
       d="m 11.09393,14.290448 c -0.249274,0 -0.488494,-0.09906 -0.664786,-0.275377 -0.176319,-0.176301 -0.275367,-0.415346 -0.275367,-0.664661 0.121905,-1.194585 0.732009,-2.285671 1.685646,-3.015116 0.584008,-0.5838246 1.134914,-1.1349244 1.134914,-1.685824 0,-0.671836 -0.358406,-1.292456 -0.940184,-1.6283838 -0.581778,-0.3359155 -1.298611,-0.3359155 -1.880376,0 C 9.5719996,7.3569835 9.2135695,7.977634 9.2135695,8.64947 c 0,0.3358985 -0.1792059,0.6462328 -0.4700998,0.8141661 -0.2908876,0.1679492 -0.6491198,0.1679492 -0.9400087,0 C 7.5125721,9.2956747 7.3333331,8.9853501 7.3333331,8.64947 c 0,-1.3434422 0.7166501,-2.584956 1.8802058,-3.2567211 1.1635531,-0.6717883 2.5972201,-0.6718384 3.7607591,0 1.163544,0.6718262 1.880199,1.9132789 1.880199,3.2567211 -0.121904,1.1945828 -0.73184,2.285672 -1.685647,3.015113 -0.58383,0.583827 -1.134758,1.134742 -1.134758,1.685827 0,0.249287 -0.09912,0.488367 -0.275367,0.664661 -0.176305,0.176321 -0.415525,0.275377 -0.664795,0.275377 z"
       id="path2-7"
       style="fill:#231d2b;fill-opacity:1;stroke-width:0.0436514;enable-background:new" />
    <path
       d="m 12.034181,16.170917 c 0,0.51923 -0.420992,0.940194 -0.940192,0.940194 -0.5192,0 -0.940194,-0.420994 -0.940194,-0.940194 0,-0.5192 0.420994,-0.94018 0.940194,-0.94018 0.5192,0 0.940192,0.42098 0.940192,0.94018"
       id="path4-5"
       style="fill:#231d2b;fill-opacity:1;stroke-width:0.0436514;enable-background:new" />
  </g>
  <g
     id="pressed-center"
     transform="translate(-8.2635212,2)">
    <rect
       style="opacity:0.00100002;fill:#000000;fill-opacity:1;stroke-width:1.02253"
       id="rect861-6-6"
       width="22"
       height="22"
       x="8.2635212"
       y="-2" />
    <path
       d="m 30.263446,8.9998888 c 0,1.3186772 -0.232112,2.5829722 -0.657776,3.7548582 -0.295875,0.814431 -0.685129,1.584459 -1.155685,2.296654 -0.197095,0.299443 -0.409004,0.58863 -0.633967,0.866538 -0.720148,0.88942 -1.576,1.663867 -2.536677,2.292495 -0.353807,0.231675 -0.721528,0.443602 -1.102236,0.633493 C 22.698661,19.583811 21.029804,20 19.263521,20 17.497241,20 15.828379,19.583811 14.34994,18.843899 13.9692,18.653967 13.60103,18.442054 13.247236,18.210406 12.27429,17.573297 11.408196,16.786571 10.68228,15.882434 10.456907,15.602267 10.245415,15.310432 10.048315,15.008287 9.5903387,14.307898 9.2109778,13.552159 8.9209553,12.753486 8.4953565,11.582072 8.2636536,10.318247 8.2636536,9.0000134 8.2636536,2.9248039 13.188463,-2 19.263677,-2 c 3.049591,0 5.808987,1.24097111 7.801583,3.2451381 0.574233,0.5773509 1.084743,1.2185482 1.519182,1.9116595 0.410826,0.6528255 0.75427,1.3523118 1.021412,2.0882192 0.425712,1.1718446 0.6578,2.4362091 0.6578,3.7548585 z"
       stroke-width="0.0429697"
       id="path273-2"
       style="fill:#23262e;fill-opacity:1;enable-background:new" />
    <path
       d="m 28.461829,9.0000281 c 0,1.1041169 -0.194358,2.1626389 -0.550746,3.1438309 -0.247757,0.681914 -0.573653,1.326605 -0.967644,1.922885 -0.165021,0.250717 -0.342464,0.492855 -0.530809,0.725542 -0.602962,0.744707 -1.319523,1.393209 -2.123979,1.919559 -0.296228,0.19398 -0.604123,0.371426 -0.922886,0.530411 -1.237856,0.619496 -2.63522,0.967971 -4.114213,0.967971 -1.478858,0 -2.876227,-0.348475 -4.114218,-0.967984 -0.318789,-0.159027 -0.627052,-0.33646 -0.923278,-0.530412 -0.814639,-0.533433 -1.539831,-1.19212 -2.147535,-1.949217 -0.188702,-0.234571 -0.365771,-0.47894 -0.530814,-0.731916 -0.38344,-0.586428 -0.701081,-1.219158 -0.943928,-1.887823 -0.356332,-0.980818 -0.550351,-2.039021 -0.550351,-3.1427222 0,-5.0866738 4.1235,-9.21017169 9.210179,-9.21017169 2.553312,0 4.863686,1.03905145 6.532271,2.71712349 0.480797,0.483417 0.908254,1.0202597 1.272041,1.6006735 0.343982,0.5465973 0.631546,1.1322777 0.855213,1.7484036 0.356436,0.9811645 0.550758,2.0397153 0.550758,3.1438317 z"
       stroke-width="0.035977"
       id="path275-7"
       style="fill:#9a658f;fill-opacity:1;enable-background:new" />
    <path
       d="m 19.357439,12.290448 c -0.249275,0 -0.488495,-0.09906 -0.664787,-0.275377 C 18.516333,11.83877 18.417285,11.599725 18.417285,11.35041 18.53919,10.155825 19.149294,9.0647387 20.102931,8.3352944 20.68694,7.7514696 21.237846,7.2003696 21.237846,6.64947 c 0,-0.671836 -0.358406,-1.292456 -0.940184,-1.6283838 -0.581778,-0.3359155 -1.298612,-0.3359155 -1.880377,0 -0.581778,0.3358973 -0.940208,0.9565478 -0.940208,1.6283838 0,0.3358985 -0.179206,0.6462329 -0.4701,0.8141662 -0.290888,0.1679493 -0.64912,0.1679493 -0.94001,0 C 15.776078,7.2956748 15.596839,6.9853501 15.596839,6.64947 c 0,-1.3434422 0.716651,-2.584956 1.880207,-3.2567211 1.163554,-0.6717883 2.597222,-0.6718384 3.760761,0 1.163545,0.6718262 1.8802,1.9132789 1.8802,3.2567211 -0.121904,1.1945828 -0.73184,2.2856716 -1.685648,3.0151133 -0.58383,0.5838267 -1.134758,1.1347417 -1.134758,1.6858267 0,0.249287 -0.09912,0.488367 -0.275367,0.664661 -0.176306,0.176321 -0.415525,0.275377 -0.664795,0.275377 z"
       id="path2-3-6"
       style="fill:#231d2b;fill-opacity:1;stroke-width:0.0436514;enable-background:new" />
    <path
       d="m 20.29769,14.170917 c 0,0.51923 -0.420992,0.940194 -0.940193,0.940194 -0.5192,0 -0.940194,-0.420994 -0.940194,-0.940194 0,-0.5192 0.420994,-0.94018 0.940194,-0.94018 0.519201,0 0.940193,0.42098 0.940193,0.94018"
       id="path4-6-2"
       style="fill:#231d2b;fill-opacity:1;stroke-width:0.0436514;enable-background:new" />
  </g>
  <g
     id="hover-inactive-center"
     transform="translate(-22,22)"
     style="enable-background:new">
    <rect
       style="opacity:0.00100002;fill:#000000;fill-opacity:1;stroke-width:1.02253"
       id="rect861-6-67"
       width="22"
       height="22"
       x="0"
       y="0" />
    <path
       d="m 21.999792,11.000014 c 0,1.318677 -0.232112,2.582972 -0.657776,3.754858 -0.295875,0.814431 -0.685129,1.584459 -1.155685,2.296654 -0.197095,0.299443 -0.409004,0.58863 -0.633967,0.866538 -0.720148,0.88942 -1.576,1.663867 -2.536677,2.292495 -0.353807,0.231675 -0.721528,0.443602 -1.102236,0.633493 -1.478444,0.739884 -3.147301,1.156073 -4.913584,1.156073 -1.76628,0 -3.435142,-0.416189 -4.913581,-1.156101 C 5.705546,20.654092 5.337376,20.442179 4.983582,20.210531 4.010636,19.573422 3.144542,18.786696 2.418626,17.882559 2.193253,17.602392 1.9817608,17.310557 1.7846608,17.008412 1.3266845,16.308023 0.9473236,15.552284 0.6573011,14.753611 0.2317023,13.582197 -6.0000001e-7,12.318372 -6.0000001e-7,11.000138 -6.0000001e-7,4.9249286 4.924809,1.247e-4 11.000023,1.247e-4 c 3.049591,0 5.808987,1.2409711 7.801583,3.2451381 0.574233,0.5773509 1.084743,1.2185482 1.519182,1.9116595 0.410826,0.6528255 0.75427,1.3523118 1.021412,2.0882192 C 21.767912,8.4169861 22,9.6813506 22,11 Z"
       stroke-width="0.0429697"
       id="path273-2-5"
       style="fill:#23262e;fill-opacity:1;enable-background:new" />
    <rect
       style="fill:#5b5c63;fill-opacity:1;stroke:none;stroke-width:0.460489;enable-background:new"
       id="center-3-35-5-7-75"
       width="18.42"
       height="18.42"
       x="1.7899935"
       y="1.789995"
       ry="9.2099857"
       rx="9.21" />
    <path
       d="m 20.210267,10.999796 c 0,1.104117 -0.194358,2.162639 -0.550745,3.143831 -0.247754,0.681914 -0.57365,1.326605 -0.967641,1.922885 -0.165021,0.250717 -0.342464,0.492855 -0.530809,0.725542 -0.602962,0.744707 -1.319523,1.393209 -2.123979,1.919559 -0.296228,0.19398 -0.604123,0.371426 -0.922886,0.530411 -1.237857,0.619496 -2.63522,0.967971 -4.114214,0.967971 -1.4788576,0 -2.8762266,-0.348475 -4.1142176,-0.967984 -0.318789,-0.159027 -0.627051,-0.33646 -0.923278,-0.530412 -0.814639,-0.533433 -1.539831,-1.19212 -2.147535,-1.949217 -0.188702,-0.234571 -0.365771,-0.47894 -0.530814,-0.731916 C 2.9007088,15.444038 2.5830677,14.811308 2.3402206,14.142643 1.9838888,13.161825 1.7898694,12.103622 1.7898694,10.999921 c 0,-5.0866739 4.123501,-9.2101718 9.2101786,-9.2101718 2.553313,0 4.863687,1.0390515 6.532272,2.7171235 0.480797,0.483417 0.908254,1.0202597 1.272041,1.6006735 0.343983,0.5465973 0.63154,1.1322777 0.855216,1.7484036 0.35643,0.9811645 0.550757,2.0397153 0.550757,3.1438312 z"
       stroke-width="0.035977"
       id="path275-5-7"
       style="display:inline;fill:#9a658f;fill-opacity:1;enable-background:new;opacity:0.45" />
    <path
       d="m 11.09393,14.290448 c -0.249275,0 -0.488494,-0.09906 -0.664786,-0.275377 -0.176319,-0.176301 -0.275367,-0.415346 -0.275367,-0.664661 0.121905,-1.194585 0.732009,-2.285671 1.685645,-3.015116 0.584008,-0.5838246 1.134914,-1.1349246 1.134914,-1.685824 0,-0.671836 -0.358406,-1.292456 -0.940183,-1.6283838 -0.581778,-0.3359155 -1.298611,-0.3359155 -1.880376,0 C 9.5719995,7.3569835 9.2135694,7.977634 9.2135694,8.64947 c 0,0.3358985 -0.1792058,0.6462328 -0.4700996,0.8141661 -0.2908877,0.1679492 -0.6491197,0.1679492 -0.9400086,0 C 7.5125723,9.2956747 7.3333334,8.9853501 7.3333334,8.64947 c 0,-1.3434422 0.71665,-2.584956 1.8802055,-3.2567211 1.1635531,-0.6717883 2.5972201,-0.6718384 3.7607581,0 1.163544,0.6718262 1.880199,1.9132789 1.880199,3.2567211 -0.121904,1.1945828 -0.73184,2.285672 -1.685647,3.015113 -0.58383,0.583827 -1.134758,1.134742 -1.134758,1.685827 0,0.249287 -0.09912,0.488367 -0.275366,0.664661 -0.176306,0.176321 -0.415525,0.275377 -0.664795,0.275377 z"
       id="path2-35"
       style="fill:#ffffff;fill-opacity:1;stroke-width:0.0436514;enable-background:new" />
    <path
       d="m 12.034181,16.170917 c 0,0.51923 -0.420992,0.940194 -0.940192,0.940194 -0.5192,0 -0.940195,-0.420994 -0.940195,-0.940194 0,-0.5192 0.420995,-0.94018 0.940195,-0.94018 0.5192,0 0.940192,0.42098 0.940192,0.94018"
       id="path4-62"
       style="fill:#ffffff;fill-opacity:1;stroke-width:0.0436514;enable-background:new" />
  </g>
  <g
     id="hover-center"
     transform="translate(-22)"
     style="enable-background:new">
    <rect
       y="0"
       x="0"
       height="22"
       width="22"
       id="rect861-6"
       style="opacity:0.00100002;fill:#000000;fill-opacity:1;stroke-width:1.02253" />
    <path
       d="m 21.999792,10.999889 c 0,1.318677 -0.232108,2.582972 -0.657775,3.754858 -0.295879,0.814431 -0.685126,1.584459 -1.155686,2.296654 -0.19709,0.299443 -0.409006,0.58863 -0.63396,0.866538 -0.720153,0.88942 -1.576005,1.663867 -2.536682,2.292495 -0.353807,0.231675 -0.721528,0.443602 -1.102236,0.633493 C 14.435009,21.583811 12.766151,22 10.999868,22 9.233588,22 7.5647258,21.583811 6.0862869,20.843899 5.7055474,20.653967 5.3373771,20.442054 4.9835827,20.210406 4.0106369,19.573297 3.1445428,18.786571 2.4186266,17.882434 2.1932536,17.602267 1.9817613,17.310432 1.784662,17.008287 1.3266852,16.307898 0.9473243,15.552159 0.6573018,14.753486 0.2317029,13.582072 0,12.318247 0,11.000013 0,4.9248037 4.9248096,-2e-7 11.000024,-2e-7 c 3.049591,0 5.808988,1.2409711 7.801585,3.2451381 0.574233,0.5773509 1.084743,1.2185482 1.519185,1.9116595 0.410821,0.6528255 0.754265,1.3523118 1.021406,2.0882192 C 21.767908,8.4168612 22,9.6812257 22,10.999875 Z"
       stroke-width="0.0429697"
       id="path273-3"
       style="fill:#23262e;fill-opacity:1;enable-background:new" />
    <path
       d="m 20.198173,11.000028 c 0,1.104117 -0.194358,2.162639 -0.550745,3.143831 -0.247754,0.681914 -0.57365,1.326605 -0.967641,1.922885 -0.165021,0.250717 -0.342464,0.492855 -0.530809,0.725542 -0.602962,0.744707 -1.319523,1.393209 -2.123979,1.919559 -0.296228,0.19398 -0.604123,0.371426 -0.922886,0.530411 -1.237857,0.619496 -2.63522,0.967971 -4.114214,0.967971 -1.478858,0 -2.876227,-0.348475 -4.1142181,-0.967984 C 6.5548921,19.083216 6.2466292,18.905783 5.9504026,18.711831 5.1357641,18.178398 4.4105715,17.519711 3.8028675,16.762614 3.6141661,16.528043 3.4370965,16.283674 3.2720536,16.030698 2.8886141,15.44427 2.570973,14.81154 2.3281259,14.142875 1.9717941,13.162057 1.7777747,12.103854 1.7777747,11.000153 c 0,-5.0866742 4.1235007,-9.2101721 9.2101793,-9.2101721 2.553313,0 4.863687,1.0390515 6.532272,2.7171235 0.480797,0.483417 0.908254,1.0202597 1.272041,1.6006735 0.343983,0.5465973 0.63154,1.1322777 0.855216,1.7484036 0.35643,0.9811645 0.550757,2.0397153 0.550757,3.1438315 z"
       stroke-width="0.035977"
       id="path275-5"
       style="fill:#9a658f;fill-opacity:1;enable-background:new" />
    <path
       d="m 11.093929,14.290552 c -0.249275,0 -0.488493,-0.09906 -0.664787,-0.275377 -0.176319,-0.176301 -0.275366,-0.415346 -0.275366,-0.664661 0.121904,-1.194585 0.732008,-2.285672 1.685647,-3.015116 0.584009,-0.5838249 1.134915,-1.1349246 1.134915,-1.6858242 0,-0.671836 -0.358406,-1.2924561 -0.940185,-1.6283839 -0.581776,-0.3359155 -1.298612,-0.3359155 -1.880376,0 -0.581778,0.3358972 -0.940209,0.9565479 -0.940209,1.6283839 0,0.3358985 -0.179206,0.6462329 -0.4701,0.814166 -0.290888,0.1679492 -0.64912,0.1679492 -0.940009,0 C 7.5125699,9.2957786 7.3333309,8.9854539 7.3333309,8.6495738 c 0,-1.3434423 0.7166501,-2.5849561 1.8802071,-3.2567212 1.163555,-0.6717883 2.597222,-0.6718385 3.76076,0 1.163546,0.6718262 1.880201,1.9132789 1.880201,3.2567212 -0.121904,1.1945827 -0.731839,2.2856712 -1.685648,3.0151132 -0.583831,0.583826 -1.134757,1.134742 -1.134757,1.685827 0,0.249287 -0.09912,0.488367 -0.275368,0.664661 -0.176306,0.176321 -0.415526,0.275377 -0.664797,0.275377 z"
       id="path2-9"
       style="fill:#ffffff;fill-opacity:1;stroke-width:0.0436514;enable-background:new" />
    <path
       d="m 11.940266,16.171021 c 0,0.51923 -0.420992,0.940194 -0.940193,0.940194 -0.5192,0 -0.940195,-0.420994 -0.940195,-0.940194 0,-0.5192 0.420995,-0.94018 0.940195,-0.94018 0.519201,0 0.940193,0.42098 0.940193,0.94018"
       id="path4-3"
       style="fill:#ffffff;fill-opacity:1;stroke-width:0.0436514;enable-background:new" />
  </g>
  <g
     id="inactive-center"
     transform="translate(-44,22)"
     style="enable-background:new">
    <rect
       y="0"
       x="0"
       height="22"
       width="22"
       id="rect861-7"
       style="opacity:0.00100002;fill:#000000;fill-opacity:1;stroke-width:1.02253" />
    <path
       d="m 21.999768,10.999889 c 0,1.318677 -0.232108,2.582972 -0.657775,3.754858 -0.295879,0.814431 -0.685126,1.584459 -1.155686,2.296654 -0.19709,0.299443 -0.409006,0.58863 -0.63396,0.866538 -0.720153,0.88942 -1.576005,1.663867 -2.536682,2.292495 -0.353807,0.231675 -0.721528,0.443602 -1.102236,0.633493 C 14.434985,21.583811 12.766127,22 10.999844,22 9.233564,22 7.564702,21.583811 6.086263,20.843899 5.705523,20.653967 5.337353,20.442054 4.983559,20.210406 4.010613,19.573297 3.144519,18.786571 2.418603,17.882434 2.19323,17.602267 1.9817373,17.310432 1.784638,17.008287 1.3266612,16.307898 0.9473003,15.552159 0.6572778,14.753486 0.2316789,13.582072 -2.4e-5,12.318247 -2.4e-5,11.000013 -2.4e-5,4.9248039 4.924786,0 11,0 c 3.049591,0 5.808988,1.2409711 7.801585,3.2451381 0.574233,0.5773509 1.084743,1.2185482 1.519185,1.9116595 0.410821,0.6528255 0.754265,1.3523118 1.021406,2.0882192 0.425708,1.1718446 0.6578,2.4362091 0.6578,3.7548582 z"
       stroke-width="0.0429697"
       id="path273-5"
       style="fill:#23262e;fill-opacity:1;enable-background:new" />
    <rect
       style="fill:#5b5c63;fill-opacity:1;stroke:none;stroke-width:0.460489;enable-background:new"
       id="center-3-35-5-7-1"
       width="18.42"
       height="18.42"
       x="1.7899966"
       y="1.7899964"
       ry="9.2099857"
       rx="9.21" />
  </g>
  <g
     id="active-center"
     transform="translate(-44)"
     style="enable-background:new">
    <rect
       style="opacity:0;fill:#000000;fill-opacity:1;stroke-width:1.02253"
       id="rect861"
       width="22"
       height="22"
       x="0"
       y="0" />
    <path
       d="m 21.999792,10.999889 c 0,1.318677 -0.232108,2.582972 -0.657775,3.754858 -0.295879,0.814431 -0.685126,1.584459 -1.155686,2.296654 -0.19709,0.299443 -0.409006,0.58863 -0.63396,0.866538 -0.720153,0.88942 -1.576005,1.663867 -2.536682,2.292495 -0.353807,0.231675 -0.721528,0.443602 -1.102236,0.633493 C 14.435009,21.583811 12.766151,22 10.999868,22 9.233588,22 7.5647258,21.583811 6.0862869,20.843899 5.7055474,20.653967 5.3373771,20.442054 4.9835827,20.210406 4.0106369,19.573297 3.1445428,18.786571 2.4186266,17.882434 2.1932536,17.602267 1.9817613,17.310432 1.784662,17.008287 1.3266852,16.307898 0.9473243,15.552159 0.6573018,14.753486 0.2317029,13.582072 0,12.318247 0,11.000013 0,4.9248039 4.9248096,0 11.000024,0 c 3.049591,0 5.808988,1.2409711 7.801585,3.2451381 0.574233,0.5773509 1.084743,1.2185482 1.519185,1.9116595 0.410821,0.6528255 0.754265,1.3523118 1.021406,2.0882192 C 21.767908,8.4168614 22,9.6812259 22,10.999875 Z"
       stroke-width="0.0429697"
       id="path273"
       style="fill:#23262e;fill-opacity:1;enable-background:new" />
    <path
       d="m 20.198173,11.000028 c 0,1.104117 -0.194358,2.162639 -0.550745,3.143831 -0.247754,0.681914 -0.57365,1.326605 -0.967641,1.922885 -0.165021,0.250717 -0.342464,0.492855 -0.530809,0.725542 -0.602962,0.744707 -1.319523,1.393209 -2.123979,1.919559 -0.296228,0.19398 -0.604123,0.371426 -0.922886,0.530411 -1.237857,0.619496 -2.63522,0.967971 -4.114214,0.967971 -1.478858,0 -2.876227,-0.348475 -4.1142181,-0.967984 C 6.5548921,19.083216 6.2466292,18.905783 5.9504026,18.711831 5.1357641,18.178398 4.4105715,17.519711 3.8028675,16.762614 3.6141661,16.528043 3.4370965,16.283674 3.2720536,16.030698 2.8886141,15.44427 2.570973,14.81154 2.3281259,14.142875 1.9717941,13.162057 1.7777747,12.103854 1.7777747,11.000153 c 0,-5.086674 4.1235007,-9.2101719 9.2101793,-9.2101719 2.553313,0 4.863687,1.0390515 6.532272,2.7171235 0.480797,0.483417 0.908254,1.0202597 1.272041,1.6006735 0.343983,0.5465973 0.63154,1.1322777 0.855216,1.7484036 0.35643,0.9811645 0.550757,2.0397153 0.550757,3.1438313 z"
       stroke-width="0.035977"
       id="path275"
       style="fill:#9a658f;fill-opacity:1;enable-background:new" />
  </g>
</svg>
